<svg width="179" height="55" viewBox="0 0 179 55" fill="none" xmlns="http://www.w3.org/2000/svg">
<path fill-rule="evenodd" clip-rule="evenodd" d="M179 27.5C179 21.5959 179 18.6438 178.415 16.2076C176.557 8.47804 170.522 2.44293 162.792 0.585433C160.356 0 157.404 0 151.5 0H27.5C21.5959 0 18.6438 0 16.2077 0.585433C8.47804 2.44293 2.44293 8.47804 0.585434 16.2076C0 18.6438 0 21.5959 0 27.5C0 33.4041 0 36.3562 0.585434 38.7924C2.44293 46.522 8.47804 52.5571 16.2077 54.4146C18.6438 55 21.5959 55 27.5 55H151.5C157.404 55 160.356 55 162.792 54.4146C170.522 52.5571 176.557 46.522 178.415 38.7924C179 36.3562 179 33.4041 179 27.5Z" fill="#4F4393"/>
</svg>
