<svg width="14" height="10" viewBox="0 0 14 10" fill="none" xmlns="http://www.w3.org/2000/svg">
<path fill-rule="evenodd" clip-rule="evenodd" d="M2.79289 2.64139C2.54163 2.39013 2.13579 2.37866 1.88846 2.63379C1.34271 3.19677 0.831502 3.85471 0.364123 4.60252C0.212122 4.84572 0.212122 5.15431 0.364123 5.39752C2.12113 8.20872 4.49754 9.75002 7.00012 9.75002C7.49496 9.75002 7.98487 9.68976 8.46603 9.57133C8.92694 9.45789 9.04231 8.89081 8.70667 8.55517L8.50661 8.35511C8.33701 8.18551 8.09002 8.12385 7.8544 8.1687C7.56788 8.22324 7.2825 8.25002 7.00012 8.25002C5.3669 8.25002 3.63326 7.35438 2.15901 5.37045C1.99554 5.15047 1.99535 4.84983 2.15881 4.62985C2.39878 4.3069 2.64562 4.01278 2.89778 3.74667C3.1618 3.46805 3.1767 3.0252 2.90528 2.75378L2.79289 2.64139ZM4.94701 4.79551C4.71656 4.56506 4.33346 4.67411 4.33346 5.00002C4.33346 6.47277 5.52736 7.66668 7.00012 7.66668C7.32603 7.66668 7.43507 7.28358 7.20462 7.05313L4.94701 4.79551ZM9.22302 6.47358C9.02503 6.77165 8.60854 6.75998 8.35551 6.50696L5.49318 3.64463C5.24015 3.3916 5.22849 2.97511 5.52656 2.77712C5.94871 2.49671 6.45534 2.33335 7.00012 2.33335C8.47288 2.33335 9.66679 3.52726 9.66679 5.00002C9.66679 5.5448 9.50343 6.05142 9.22302 6.47358ZM10.0528 8.20427C9.74053 7.89198 9.81306 7.36605 10.1649 7.09904C10.7461 6.65788 11.3106 6.08463 11.8414 5.37029C12.0048 5.15031 12.0047 4.84956 11.8412 4.62958C10.367 2.64565 8.63334 1.75001 7.00012 1.75002C6.28844 1.75002 5.55768 1.92008 4.83763 2.27615C4.56165 2.41263 4.22493 2.37638 4.00722 2.15867L3.86387 2.01531C3.56787 1.71931 3.61423 1.22456 3.98363 1.02762C4.94384 0.51569 5.96111 0.250015 7.00012 0.250015C9.50271 0.250015 11.8791 1.79131 13.6361 4.60252C13.7881 4.84572 13.7881 5.15431 13.6361 5.39752C12.8541 6.64875 11.9494 7.64841 10.9654 8.37257C10.7135 8.55796 10.3666 8.51807 10.1455 8.29691L10.0528 8.20427Z" fill="#9F9F9F"/>
</svg>
