<svg width="16" height="12" viewBox="0 0 16 12" fill="none" xmlns="http://www.w3.org/2000/svg">
<path fill-rule="evenodd" clip-rule="evenodd" d="M7.99765 9.75C6.04711 9.75 3.97497 8.58373 2.26873 6C3.97497 3.41627 6.04711 2.25 7.99765 2.25C9.9482 2.25 12.0203 3.41627 13.7266 6C12.0203 8.58373 9.9482 9.75 7.99765 9.75ZM15.2548 5.60815C13.3295 2.4661 10.7305 0.75 7.99765 0.75C5.26479 0.75 2.66579 2.4661 0.740509 5.60815C0.59317 5.84861 0.59317 6.15139 0.740509 6.39185C2.66579 9.5339 5.26479 11.25 7.99765 11.25C10.7305 11.25 13.3295 9.53391 15.2548 6.39185C15.4021 6.15139 15.4021 5.84861 15.2548 5.60815ZM7.99759 9C9.62196 9 10.9388 7.65685 10.9388 6C10.9388 4.34315 9.62196 3 7.99759 3C6.37323 3 5.05642 4.34315 5.05642 6C5.05642 7.65685 6.37323 9 7.99759 9Z" fill="#9F9F9F"/>
</svg>
