<svg width="14" height="10" viewBox="0 0 14 10" fill="none" xmlns="http://www.w3.org/2000/svg">
<path fill-rule="evenodd" clip-rule="evenodd" d="M2.79289 2.64138C2.54163 2.39012 2.13579 2.37864 1.88846 2.63377C1.34271 3.19675 0.831502 3.8547 0.364123 4.6025C0.212122 4.8457 0.212122 5.1543 0.364123 5.3975C2.12113 8.20871 4.49754 9.75 7.00012 9.75C7.49496 9.75 7.98487 9.68974 8.46603 9.57132C8.92694 9.45788 9.04231 8.8908 8.70667 8.55515L8.50661 8.3551C8.33701 8.1855 8.09003 8.12383 7.8544 8.16869C7.56788 8.22323 7.2825 8.25 7.00012 8.25C5.3669 8.25 3.63326 7.35437 2.15901 5.37043C1.99554 5.15046 1.99536 4.84981 2.15881 4.62983C2.39878 4.30688 2.64562 4.01277 2.89779 3.74665C3.1618 3.46803 3.1767 3.02518 2.90528 2.75377L2.79289 2.64138ZM4.94701 4.7955C4.71656 4.56505 4.33346 4.6741 4.33346 5C4.33346 6.47276 5.52736 7.66667 7.00012 7.66667C7.32603 7.66667 7.43507 7.28356 7.20462 7.05311L4.94701 4.7955ZM9.22302 6.47356C9.02503 6.77163 8.60854 6.75997 8.35551 6.50694L5.49318 3.64461C5.24015 3.39159 5.22849 2.97509 5.52656 2.77711C5.94871 2.4967 6.45534 2.33333 7.00012 2.33333C8.47288 2.33333 9.66679 3.52724 9.66679 5C9.66679 5.54478 9.50343 6.05141 9.22302 6.47356ZM10.0528 8.20425C9.74053 7.89196 9.81306 7.36603 10.1649 7.09903C10.7461 6.65787 11.3106 6.08461 11.8414 5.37027C12.0048 5.15029 12.0047 4.84954 11.8412 4.62957C10.367 2.64563 8.63334 1.75 7.00012 1.75C6.28844 1.75 5.55768 1.92007 4.83763 2.27614C4.56165 2.41262 4.22493 2.37636 4.00722 2.15865L3.86387 2.0153C3.56787 1.7193 3.61423 1.22454 3.98363 1.0276C4.94384 0.515675 5.96111 0.25 7.00012 0.25C9.50271 0.249999 11.8791 1.79129 13.6361 4.6025C13.7881 4.84571 13.7881 5.1543 13.6361 5.3975C12.8541 6.64873 11.9494 7.64839 10.9654 8.37255C10.7135 8.55795 10.3666 8.51806 10.1455 8.29689L10.0528 8.20425Z" fill="#9F9F9F"/>
</svg>
