<svg width="20" height="14" viewBox="0 0 20 14" fill="none" xmlns="http://www.w3.org/2000/svg">
<path fill-rule="evenodd" clip-rule="evenodd" d="M10 12.1C7.27422 12.1 4.4096 10.4953 2.07162 7C4.4096 3.50472 7.27422 1.9 10 1.9C12.7259 1.9 15.5905 3.50472 17.9285 7C15.5905 10.4953 12.7259 12.1 10 12.1ZM19.7632 6.523C17.1548 2.34955 13.6531 0.1 10 0.1C6.34693 0.1 2.84524 2.34955 0.236838 6.523C0.0544361 6.81485 0.0544361 7.18516 0.236838 7.477C2.84524 11.6504 6.34693 13.9 10 13.9C13.6531 13.9 17.1548 11.6505 19.7632 7.477C19.9456 7.18516 19.9456 6.81485 19.7632 6.523ZM10 11C12.2091 11 14 9.20914 14 7C14 4.79086 12.2091 3 10 3C7.79087 3 6.00001 4.79086 6.00001 7C6.00001 9.20914 7.79087 11 10 11Z" fill="#201926"/>
</svg>
