<svg width="20" height="14" viewBox="0 0 20 14" fill="none" xmlns="http://www.w3.org/2000/svg">
<path fill-rule="evenodd" clip-rule="evenodd" d="M3.77769 3.55048C3.44033 3.21312 2.89571 3.19758 2.56143 3.53799C1.7299 4.38474 0.949984 5.38197 0.236838 6.523C0.0544361 6.81484 0.0544361 7.18516 0.236838 7.477C2.84524 11.6504 6.34693 13.9 10 13.9C10.7003 13.9 11.395 13.8173 12.0789 13.6543C12.741 13.4965 12.9106 12.6833 12.4293 12.2021C12.1835 11.9563 11.824 11.8693 11.4841 11.9418C10.9875 12.0478 10.4915 12.1 10 12.1C7.42129 12.1 4.71831 10.6638 2.45454 7.54928C2.21653 7.22182 2.21616 6.7787 2.45417 6.45123C2.87696 5.8695 3.31508 5.34631 3.76485 4.8801C4.1226 4.50926 4.14203 3.91483 3.77769 3.55048ZM6.92043 6.69322C6.57472 6.34752 6.00001 6.5111 6.00001 7C6.00001 9.20914 7.79087 11 10 11C10.4889 11 10.6525 10.4253 10.3068 10.0796L6.92043 6.69322ZM13.3344 9.21026C13.0374 9.65738 12.4127 9.63989 12.0331 9.26034L7.73966 4.96687C7.36012 4.58733 7.34263 3.96258 7.78974 3.6656C8.42296 3.24502 9.18287 3 10 3C12.2091 3 14 4.79086 14 7C14 7.81713 13.755 8.57704 13.3344 9.21026ZM14.6258 11.853C14.2157 11.4429 14.3085 10.7535 14.7749 10.4087C15.7421 9.69389 16.6764 8.74516 17.5459 7.54884C17.7839 7.22137 17.7835 6.77817 17.5455 6.45071C15.2818 3.33623 12.5788 1.9 10 1.9C8.85336 1.9 7.68212 2.18398 6.53585 2.77322C6.15728 2.96783 5.69106 2.91826 5.39007 2.61727C4.98176 2.20896 5.04707 1.52654 5.55592 1.25358C6.97484 0.492436 8.47423 0.0999985 10 0.0999985C13.6531 0.0999985 17.1548 2.34955 19.7632 6.523C19.9456 6.81484 19.9456 7.18516 19.7632 7.477C18.5732 9.38112 17.1971 10.8848 15.7056 11.957C15.3718 12.197 14.9165 12.1437 14.6258 11.853Z" fill="#262F56"/>
</svg>
